<mxfile host="Electron" modified="2024-03-12T18:20:50.263Z" agent="Mozilla/5.0 (Windows NT 10.0; Win64; x64) AppleWebKit/537.36 (KHTML, like Gecko) draw.io/24.0.4 Chrome/120.0.6099.109 Electron/28.1.0 Safari/537.36" etag="JaUUL6NBTr_mHXp8D7Al" version="24.0.4" type="device">
  <diagram name="Страница — 1" id="AYQqrGZV5MYxkGHrkEwz">
    <mxGraphModel dx="1687" dy="984" grid="1" gridSize="10" guides="1" tooltips="1" connect="1" arrows="1" fold="1" page="1" pageScale="1" pageWidth="827" pageHeight="1169" math="0" shadow="0">
      <root>
        <mxCell id="0" />
        <mxCell id="1" parent="0" />
        <mxCell id="5VpTLWuGb7ubiWnxd4XH-16" style="rounded=0;orthogonalLoop=1;jettySize=auto;html=1;entryX=1;entryY=0.5;entryDx=0;entryDy=0;" parent="1" source="5VpTLWuGb7ubiWnxd4XH-4" target="5VpTLWuGb7ubiWnxd4XH-5" edge="1">
          <mxGeometry relative="1" as="geometry" />
        </mxCell>
        <mxCell id="5VpTLWuGb7ubiWnxd4XH-17" style="rounded=0;orthogonalLoop=1;jettySize=auto;html=1;entryX=0;entryY=0.5;entryDx=0;entryDy=0;" parent="1" source="5VpTLWuGb7ubiWnxd4XH-4" target="5VpTLWuGb7ubiWnxd4XH-6" edge="1">
          <mxGeometry relative="1" as="geometry" />
        </mxCell>
        <mxCell id="5VpTLWuGb7ubiWnxd4XH-19" style="rounded=0;orthogonalLoop=1;jettySize=auto;html=1;entryX=0.059;entryY=0.742;entryDx=0;entryDy=0;entryPerimeter=0;" parent="1" source="5VpTLWuGb7ubiWnxd4XH-4" target="5VpTLWuGb7ubiWnxd4XH-22" edge="1">
          <mxGeometry relative="1" as="geometry">
            <mxPoint x="359" y="250" as="targetPoint" />
          </mxGeometry>
        </mxCell>
        <mxCell id="5VpTLWuGb7ubiWnxd4XH-4" value="Неавторизированный&lt;div&gt;пользователь&lt;/div&gt;" style="shape=umlActor;verticalLabelPosition=bottom;verticalAlign=top;html=1;" parent="1" vertex="1">
          <mxGeometry x="344" y="300" width="30" height="60" as="geometry" />
        </mxCell>
        <mxCell id="5VpTLWuGb7ubiWnxd4XH-5" value="Авторизироваться" style="ellipse;whiteSpace=wrap;html=1;" parent="1" vertex="1">
          <mxGeometry x="140" y="295" width="140" height="70" as="geometry" />
        </mxCell>
        <mxCell id="5VpTLWuGb7ubiWnxd4XH-6" value="Зарегистрироваться" style="ellipse;whiteSpace=wrap;html=1;" parent="1" vertex="1">
          <mxGeometry x="440" y="295" width="140" height="70" as="geometry" />
        </mxCell>
        <mxCell id="5VpTLWuGb7ubiWnxd4XH-20" value="Посмотреть список курсов" style="ellipse;whiteSpace=wrap;html=1;" parent="1" vertex="1">
          <mxGeometry x="140" y="160" width="140" height="70" as="geometry" />
        </mxCell>
        <mxCell id="5VpTLWuGb7ubiWnxd4XH-22" value="Посмотреть информацию о курсе" style="ellipse;whiteSpace=wrap;html=1;" parent="1" vertex="1">
          <mxGeometry x="440" y="160" width="140" height="70" as="geometry" />
        </mxCell>
        <mxCell id="8-hv18qy9VCkP1S3uoec-1" style="rounded=0;orthogonalLoop=1;jettySize=auto;html=1;entryX=0.917;entryY=0.818;entryDx=0;entryDy=0;entryPerimeter=0;" edge="1" parent="1" target="5VpTLWuGb7ubiWnxd4XH-20">
          <mxGeometry relative="1" as="geometry">
            <mxPoint x="340" y="310" as="sourcePoint" />
            <mxPoint x="455" y="222" as="targetPoint" />
          </mxGeometry>
        </mxCell>
      </root>
    </mxGraphModel>
  </diagram>
</mxfile>
